<?xml version="1.0" encoding="UTF-8"?>
<svg version="1.1" xmlns="http://www.w3.org/2000/svg" width="256" height="256">
<path d="M0 0 C1 1 1 1 1.140625 4.9296875 C1.07980151 10.06116221 0.49738799 15.05293403 -0.25 20.125 C-0.38494873 21.04297363 -0.51989746 21.96094727 -0.65893555 22.90673828 C-3.85253346 43.63165075 -10.69730389 68.78122593 -28.48828125 81.82421875 C-38.7963138 88.28433627 -49.43727185 89.52729904 -61.39453125 87.39453125 C-64.29551074 86.67567218 -67.14260204 85.87487747 -70 85 C-72.33279581 84.33145486 -74.66601377 83.66437727 -77 83 C-81.92927914 93.81155224 -85.73724477 104.5246013 -88.05371094 116.22167969 C-88.23158142 117.11779968 -88.4094519 118.01391968 -88.5927124 118.93719482 C-88.72711731 119.61792053 -88.86152222 120.29864624 -89 121 C-88.14222458 120.99111755 -87.28444916 120.98223511 -86.40068054 120.9730835 C-78.32250719 120.89298209 -70.24446694 120.83205838 -62.16598797 120.79275131 C-58.01258612 120.77186377 -53.85951202 120.74352549 -49.70629883 120.69824219 C-45.6992298 120.65482505 -41.69247627 120.63087169 -37.6851902 120.62049103 C-36.15531254 120.61309213 -34.62545242 120.59864381 -33.09570885 120.57707977 C-30.95494461 120.54809887 -28.81548894 120.54404149 -26.67456055 120.54589844 C-25.45544479 120.53701599 -24.23632904 120.52813354 -22.98027039 120.51898193 C-20 121 -20 121 -18.10710144 122.86528015 C-16.70810677 125.56283033 -16.61219552 127.50145295 -16.6015625 130.53515625 C-16.59769531 131.59154297 -16.59382812 132.64792969 -16.58984375 133.73632812 C-16.60724609 135.3827832 -16.60724609 135.3827832 -16.625 137.0625 C-16.61339844 138.16400391 -16.60179687 139.26550781 -16.58984375 140.40039062 C-16.59371094 141.45548828 -16.59757813 142.51058594 -16.6015625 143.59765625 C-16.60494629 144.56195557 -16.60833008 145.52625488 -16.61181641 146.51977539 C-17.07896851 149.50455412 -17.63688117 150.17778902 -20 152 C-22.48046875 152.51171875 -22.48046875 152.51171875 -25.1875 152.6875 C-26.08855469 152.75324219 -26.98960937 152.81898438 -27.91796875 152.88671875 C-28.94857422 152.94279297 -28.94857422 152.94279297 -30 153 C-30.19378738 154.09802948 -30.38757477 155.19605896 -30.5872345 156.32736206 C-32.41249826 166.65987163 -34.25113261 176.98992319 -36.10298634 187.31770134 C-37.05467957 192.62778071 -38.0015922 197.93862171 -38.93774414 203.25146484 C-39.8408507 208.37575411 -40.7562987 213.49769582 -41.68045616 218.61822891 C-42.03137131 220.57511565 -42.3777829 222.53281536 -42.71967506 224.49129868 C-43.19821676 227.22807713 -43.69249173 229.96156311 -44.19067383 232.69482422 C-44.39891281 233.91833588 -44.39891281 233.91833588 -44.61135864 235.16656494 C-44.9781881 237.13142894 -45.47836176 239.07045396 -46 241 C-49.90217178 243.60144785 -53.19460322 243.29539439 -57.72241211 243.29052734 C-58.61375351 243.29724457 -59.50509491 243.30396179 -60.42344666 243.31088257 C-63.37480212 243.32990639 -66.32593076 243.33378885 -69.27734375 243.3359375 C-71.32613723 243.34236193 -73.37492978 243.34909002 -75.42372131 243.35610962 C-79.72024666 243.36809304 -84.01669154 243.3717893 -88.31323242 243.37060547 C-93.82269381 243.37040212 -99.3316403 243.39771627 -104.84097958 243.43214989 C-109.07286456 243.45436998 -113.30462461 243.45844453 -117.53656197 243.45738602 C-119.56797627 243.4597489 -121.59939366 243.46861086 -123.63075066 243.48405075 C-126.47026689 243.50361359 -129.30865962 243.49791118 -132.14819336 243.48583984 C-133.40995392 243.50269836 -133.40995392 243.50269836 -134.69720459 243.51989746 C-138.11398449 243.48292523 -140.51212463 243.30602367 -143.438797 241.47024536 C-145.54612634 238.13588043 -146.19317141 234.81837608 -146.83105469 230.99023438 C-146.97794235 230.18652908 -147.12483002 229.38282379 -147.27616882 228.55476379 C-147.75669803 225.90358073 -148.21447894 223.24901349 -148.671875 220.59375 C-149.0011756 218.74793903 -149.33178105 216.90236041 -149.66363525 215.05700684 C-150.3554742 211.19180831 -151.03707358 207.32500026 -151.71044922 203.45654297 C-152.57367342 198.49755863 -153.45354158 193.54172801 -154.33997726 188.5868454 C-155.18499503 183.86090334 -156.02287867 179.13370678 -156.859375 174.40625 C-157.01940758 173.50392136 -157.17944016 172.60159271 -157.3443222 171.67192078 C-157.79559249 169.11852854 -158.24192282 166.56432659 -158.68652344 164.00976562 C-158.82050034 163.25431961 -158.95447723 162.4988736 -159.09251404 161.72053528 C-159.66476998 158.40340325 -160 155.38047356 -160 152 C-160.68707031 152.02320313 -161.37414062 152.04640625 -162.08203125 152.0703125 C-162.98308594 152.08835938 -163.88414062 152.10640625 -164.8125 152.125 C-165.70582031 152.14820313 -166.59914063 152.17140625 -167.51953125 152.1953125 C-170 152 -170 152 -173 150 C-173.38818359 147.43383789 -173.38818359 147.43383789 -173.3984375 144.22265625 C-173.40230469 143.06958984 -173.40617187 141.91652344 -173.41015625 140.72851562 C-173.39855469 139.51873047 -173.38695312 138.30894531 -173.375 137.0625 C-173.38660156 135.85658203 -173.39820313 134.65066406 -173.41015625 133.40820312 C-173.40628906 132.25384766 -173.40242188 131.09949219 -173.3984375 129.91015625 C-173.39505371 128.84933838 -173.39166992 127.78852051 -173.38818359 126.69555664 C-173 124 -173 124 -171.91584778 122.35281372 C-168.98844356 120.28572226 -166.50789497 120.64109521 -162.95825195 120.65942383 C-162.24580322 120.65898575 -161.53335449 120.65854767 -160.79931641 120.65809631 C-158.44535885 120.6601857 -156.09211431 120.68352285 -153.73828125 120.70703125 C-152.10589487 120.7126267 -150.47350345 120.71689704 -148.84111023 120.71989441 C-144.54525842 120.7313473 -140.24971104 120.76081813 -135.95397949 120.79400635 C-131.57027301 120.82469776 -127.18651733 120.83839775 -122.80273438 120.85351562 C-114.20168323 120.88568755 -105.60087949 120.93688907 -97 121 C-96.93655899 120.24405045 -96.87311798 119.48810089 -96.80775452 118.70924377 C-96.72174484 117.71794968 -96.63573517 116.72665558 -96.54711914 115.70532227 C-96.46305313 114.72249771 -96.37898712 113.73967316 -96.29237366 112.72706604 C-96 110 -96 110 -95.24609375 106.71484375 C-94.66406965 100.29410171 -100.07752578 93.55497656 -103.8046875 88.6015625 C-105.15178531 87.02242871 -106.56764295 85.50222812 -108 84 C-108.59425781 84.39832031 -109.18851562 84.79664062 -109.80078125 85.20703125 C-118.51124919 90.77468649 -126.85764597 94.06160631 -137.3125 92.62109375 C-150.39786605 89.59700479 -158.8918135 79.57070378 -165.79907227 68.61132812 C-168.52347439 64.07616177 -170.84535498 59.39201266 -173 54.5625 C-173.29092529 53.91265137 -173.58185059 53.26280273 -173.8815918 52.59326172 C-175.64945984 48.42128594 -176.73056628 44.52985441 -177 40 C-170.51552918 33.51552918 -155.67365302 34.68135312 -147.1875 34.625 C-146.13876709 34.61130371 -145.09003418 34.59760742 -144.00952148 34.58349609 C-132.34782073 34.6516447 -121.53219296 37.70511424 -112.95703125 45.96875 C-106.87703151 53.12474117 -104.01060533 61.41871798 -103.6875 70.75 C-103.32835081 76.99021721 -100.25450695 79.75478237 -96 84 C-92 89.19075145 -92 89.19075145 -92 92 C-91.34 92 -90.68 92 -90 92 C-89.81824219 91.41992188 -89.63648437 90.83984375 -89.44921875 90.2421875 C-89.19785156 89.46101563 -88.94648437 88.67984375 -88.6875 87.875 C-88.44386719 87.10929687 -88.20023437 86.34359375 -87.94921875 85.5546875 C-87 83 -87 83 -85.3046875 80.31640625 C-83.4359693 75.56628124 -84.47350319 71.96750355 -85.4375 67.0625 C-87.7331593 53.4691282 -87.15680026 40.24218088 -79.27734375 28.4140625 C-66.0935875 10.95803534 -45.60358851 3.93743507 -24.6875 0.75 C-22.46089275 0.47814679 -20.2315376 0.22786828 -18 0 C-16.81921875 -0.12246094 -15.6384375 -0.24492188 -14.421875 -0.37109375 C-4.71572135 -1.25248214 -4.71572135 -1.25248214 0 0 Z M-69.50390625 29.11328125 C-76.51002353 37.94867197 -79.57681079 48.25170306 -78.8359375 59.48828125 C-78.60665939 61.33233232 -78.31109835 63.16797636 -78 65 C-74.48979234 63.82993078 -73.89482063 62.85906642 -71.75 59.9375 C-65.53888618 51.74659365 -58.93879343 43.36591287 -50 38 C-47.1640625 38.25390625 -47.1640625 38.25390625 -45 39 C-45.07646006 41.71688075 -45.56368093 43.49819391 -47.35986328 45.56396484 C-49.22385939 47.31797523 -51.13031357 49.0089116 -53.0625 50.6875 C-61.11009362 57.93308996 -67.9575598 65.33532294 -73 75 C-62.0447488 79.29617694 -50.70314837 82.9973872 -39.125 78.4375 C-26.07316122 71.50068939 -18.5097347 58.68870234 -14 45 C-10.43271822 32.86194452 -8.1925857 20.58444908 -7 8 C-28.30061218 6.75784767 -54.54678804 13.15184815 -69.50390625 29.11328125 Z M-167 45 C-165.4436828 57.40190273 -155.09759815 72.43910924 -145.4921875 79.96484375 C-139.77044783 83.68309965 -134.62811312 85.98100175 -127.71484375 84.515625 C-122.89230238 83.06644729 -119.02797699 80.99516238 -115 78 C-116.49934419 73.58246912 -119.90941053 71.76882888 -123.6875 69.4375 C-124.58758789 68.85838867 -124.58758789 68.85838867 -125.50585938 68.26757812 C-128.56352693 66.33970396 -131.52730825 64.73513998 -134.8984375 63.421875 C-135.92195313 62.95265625 -136.94546875 62.4834375 -138 62 C-138.9375 58.8125 -138.9375 58.8125 -139 56 C-128.7213421 56.20154231 -120.26043744 62.38141417 -112 68 C-113.70220773 59.9145133 -116.31919427 53.57894659 -122.90234375 48.3515625 C-134.14463094 41.10792867 -154.61473597 38.80736798 -167 45 Z M-165 129 C-165 133.95 -165 138.9 -165 144 C-118.8 144 -72.6 144 -25 144 C-25 139.05 -25 134.1 -25 129 C-71.2 129 -117.4 129 -165 129 Z M-152 152 C-150.47846703 162.83266734 -150.47846703 162.83266734 -148.68725586 173.6003418 C-148.57152725 174.24130295 -148.45579865 174.8822641 -148.33656311 175.54264832 C-147.96523923 177.59531711 -147.59020013 179.64728388 -147.21484375 181.69921875 C-146.95088807 183.15172853 -146.68710262 184.60426924 -146.42347717 186.05683899 C-145.87637057 189.0680691 -145.32743748 192.07895842 -144.77709961 195.08959961 C-144.07214166 198.94678684 -143.37158892 202.80475908 -142.67232418 206.66298199 C-142.13091972 209.64778628 -141.58738649 212.63219978 -141.04318428 215.61649513 C-140.78380785 217.04014597 -140.52505744 218.46391102 -140.26695061 219.88779259 C-139.90789551 221.86658486 -139.54569716 223.84480602 -139.18334961 225.82299805 C-138.97842392 226.94659225 -138.77349823 228.07018646 -138.56236267 229.22782898 C-138.04429989 232.06927866 -138.04429989 232.06927866 -137 235 C-109.28 235 -81.56 235 -53 235 C-50.69 222.41875 -48.38 209.8375 -46 196.875 C-45.26910156 192.90968262 -44.53820312 188.94436523 -43.78515625 184.85888672 C-43.13247395 181.2892064 -43.13247395 181.2892064 -42.48120117 177.7192688 C-42.19148366 176.13500812 -41.89967921 174.55112819 -41.60620117 172.96755981 C-41.1608897 170.56242262 -40.72231133 168.15614292 -40.28515625 165.74951172 C-40.15399918 165.04973646 -40.0228421 164.3499612 -39.88771057 163.62898064 C-39.16431931 159.59946744 -39 156.16536293 -39 152 C-76.29 152 -113.58 152 -152 152 Z " fill="#000000" transform="translate(216,7)"/>
</svg>
